<svg width="24" height="24" viewBox="0 0 24 24" fill="none" xmlns="http://www.w3.org/2000/svg">
<path d="M11.9999 1.25C12.866 1.25 13.6406 1.52703 14.4765 1.99609C15.2864 2.45058 16.2149 3.12111 17.3818 3.96484L18.8906 5.05664C19.8267 5.73348 20.5745 6.27401 21.1386 6.77441C21.7211 7.29123 22.1571 7.80702 22.4335 8.45508C22.7106 9.10463 22.7783 9.77046 22.7411 10.5381C22.7053 11.2789 22.5677 12.1726 22.3964 13.2871L22.081 15.3389C21.8376 16.9225 21.644 18.1836 21.3593 19.166C21.0649 20.1819 20.6503 20.9889 19.9091 21.6055C19.1709 22.2194 18.2909 22.4926 17.2167 22.623C16.1719 22.7499 14.854 22.75 13.1894 22.75H10.8115C9.14651 22.75 7.82808 22.75 6.78314 22.623C5.70914 22.4926 4.82984 22.2193 4.09174 21.6055C3.35049 20.9889 2.93593 20.182 2.64154 19.166C2.35685 18.1835 2.16225 16.9226 1.91888 15.3389L1.60443 13.2871C1.43315 12.1726 1.29557 11.2789 1.2597 10.5381C1.22254 9.77046 1.2893 9.10463 1.56635 8.45508C1.84279 7.80694 2.27872 7.29128 2.86127 6.77441C3.42543 6.27389 4.17387 5.73369 5.11029 5.05664L6.61908 3.96484C7.78597 3.12112 8.7145 2.45055 9.52435 1.99609C10.3601 1.52715 11.134 1.25005 11.9999 1.25ZM11.9999 14C11.4478 14.0001 10.9999 14.4478 10.9999 15V18C10.9999 18.5522 11.4478 18.9999 11.9999 19C12.5522 19 12.9999 18.5523 12.9999 18V15C12.9999 14.4477 12.5522 14 11.9999 14Z" fill="#AAAEBA"/>
</svg>
