<svg width="72" height="72" viewBox="0 0 72 72" fill="none" xmlns="http://www.w3.org/2000/svg">
<g opacity="0.32">
<circle cx="19.5" cy="55.5" r="10.5" stroke="#AAAEBA" stroke-width="4.5"/>
<path d="M49.2647 40.3451C50.6403 39.4923 52.2628 39 54.0002 39C58.9708 39 63.0002 43.0294 63.0002 48C63.0002 49.9308 62.3922 51.7196 61.3572 53.1853M45.49 45.8732C45.0867 46.8954 45.0002 46.8344 45.0002 48C45.0002 52.9706 49.0296 57 54.0002 57C54.9335 57 55.8337 56.8579 56.6802 56.5942" stroke="#AAAEBA" stroke-width="4.5" stroke-linecap="round"/>
<path d="M30 55.5V31.1349M63 48V8.2976C63 7.29451 63 6.79296 62.6979 6.62015C62.3959 6.44735 61.9525 6.70801 61.0658 7.22933C56.4743 9.9287 47.0425 14.1798 33.8526 14.896C32.9603 14.9444 32.5142 14.9686 32.2021 15.0547C31.0876 15.3622 30.3157 16.1772 30.069 17.3068C30 17.623 30 18.0321 30 18.8504" stroke="#AAAEBA" stroke-width="4.5" stroke-linecap="round" stroke-linejoin="round"/>
<path d="M63.0003 21C59.9015 22.6902 52.6027 27.4346 39.3091 29.0239" stroke="#AAAEBA" stroke-width="4.5" stroke-linecap="round" stroke-linejoin="round"/>
<path d="M6.75 6.75024L65.2495 65.2498" stroke="#AAAEBA" stroke-width="4.5" stroke-linecap="round"/>
</g>
</svg>
