<svg width="20" height="22" viewBox="0 0 20 22" fill="none" xmlns="http://www.w3.org/2000/svg">
<path d="M7.82227 0.637207C7.82227 0.427246 7.86621 0.268555 7.95411 0.161133C8.04688 0.0537109 8.16651 0.00244141 8.31299 0.00732422C8.46436 0.00732422 8.62305 0.065918 8.78907 0.183105L11.792 2.33643C11.9922 2.47803 12.0898 2.64404 12.085 2.83447C12.085 3.0249 11.9873 3.19092 11.792 3.33252L8.78174 5.47852C8.62061 5.5957 8.46436 5.65674 8.31299 5.66162C8.16651 5.66162 8.04688 5.60791 7.95411 5.50049C7.86621 5.39307 7.82227 5.23682 7.82227 5.03174V0.637207ZM9.66065 21.1157C8.5962 21.1157 7.58057 20.9521 6.61377 20.625C5.64698 20.3027 4.76075 19.8438 3.95508 19.248C3.1543 18.6572 2.45606 17.959 1.86036 17.1533C1.26954 16.3525 0.810551 15.4688 0.483402 14.502C0.161137 13.5352 3.8147e-06 12.5195 3.8147e-06 11.4551C3.8147e-06 10.3857 0.161137 9.37012 0.483402 8.4082C0.810551 7.44141 1.26954 6.55518 1.86036 5.74951C2.45606 4.94385 3.1543 4.24561 3.95508 3.65479C4.76075 3.06396 5.64698 2.60742 6.61377 2.28516C7.58057 1.95801 8.60108 1.79199 9.6753 1.78711C9.90967 1.79199 10.105 1.87744 10.2612 2.04346C10.4224 2.20947 10.5029 2.40479 10.5029 2.62939C10.5029 2.85889 10.4224 3.05664 10.2612 3.22266C10.1001 3.38867 9.90235 3.47168 9.66797 3.47168C8.78418 3.47168 7.9419 3.60596 7.14112 3.87451C6.34522 4.13818 5.6128 4.5166 4.94385 5.00977C4.27979 5.49805 3.70362 6.07422 3.21534 6.73828C2.72705 7.40234 2.34864 8.13477 2.08008 8.93555C1.81153 9.73145 1.67725 10.5713 1.67725 11.4551C1.67725 12.3389 1.81153 13.1787 2.08008 13.9746C2.34864 14.7705 2.72705 15.5029 3.21534 16.1719C3.70362 16.8359 4.27979 17.4121 4.94385 17.9004C5.6128 18.3887 6.34522 18.7671 7.14112 19.0356C7.93702 19.3042 8.77686 19.4385 9.66065 19.4385C10.5444 19.4385 11.3843 19.3042 12.1802 19.0356C12.981 18.7671 13.7134 18.3887 14.3774 17.9004C15.0415 17.4121 15.6177 16.8359 16.106 16.1719C16.5991 15.5029 16.9775 14.7705 17.2412 13.9746C17.5098 13.1787 17.644 12.3389 17.644 11.4551C17.644 10.5664 17.5073 9.72412 17.2339 8.92822C16.9653 8.13232 16.5845 7.40479 16.0913 6.74561C15.5981 6.08643 15.0195 5.51758 14.3555 5.03906C14.1602 4.87305 14.0381 4.68018 13.9893 4.46045C13.9404 4.24072 13.9844 4.02832 14.1211 3.82324C14.2529 3.6377 14.4409 3.53027 14.6851 3.50098C14.9292 3.4668 15.1587 3.5376 15.3735 3.71338C16.1792 4.3042 16.8774 5 17.4683 5.80078C18.0591 6.60156 18.5156 7.48047 18.8379 8.4375C19.165 9.39453 19.3286 10.4004 19.3286 11.4551C19.3286 12.5195 19.165 13.5352 18.8379 14.502C18.5107 15.4688 18.0518 16.3525 17.4609 17.1533C16.8701 17.959 16.1719 18.6572 15.3662 19.248C14.5606 19.8438 13.6743 20.3027 12.7075 20.625C11.7456 20.9521 10.73 21.1157 9.66065 21.1157Z" fill="#AAAEBA"/>
</svg>
