<svg width="36" height="36" viewBox="0 0 36 36" fill="none" xmlns="http://www.w3.org/2000/svg">
<g style="mix-blend-mode:plus-lighter">
<path d="M20.0835 5.74658V10.7271C20.0835 10.9595 20.0309 11.1366 19.9258 11.2583C19.8206 11.38 19.6851 11.4409 19.519 11.4409C19.353 11.4354 19.1787 11.3662 18.9961 11.2334L15.5845 8.80127C15.3631 8.64079 15.2497 8.45264 15.2441 8.23682C15.2441 8.021 15.3576 7.83285 15.5845 7.67236L18.9878 5.23193C19.1704 5.09912 19.3447 5.03271 19.5107 5.03271C19.6823 5.02718 19.8206 5.08529 19.9258 5.20703C20.0309 5.32878 20.0835 5.50863 20.0835 5.74658ZM17.9917 28.9556C16.7853 28.9556 15.6343 28.7702 14.5386 28.3994C13.4429 28.0342 12.4385 27.514 11.5254 26.8389C10.6178 26.1693 9.8265 25.3779 9.15137 24.4648C8.48177 23.5573 7.96159 22.5557 7.59082 21.46C7.22559 20.3643 7.04297 19.2132 7.04297 18.0068C7.04297 16.8115 7.22559 15.6715 7.59082 14.5869C7.95605 13.5023 8.47347 12.5062 9.14307 11.5986C9.8182 10.6911 10.6095 9.90251 11.5171 9.23291C11.7606 9.03369 12.0179 8.95345 12.2891 8.99219C12.5658 9.02539 12.7788 9.14714 12.9282 9.35742C13.0942 9.58984 13.1468 9.83057 13.0859 10.0796C13.0306 10.3286 12.895 10.5472 12.6792 10.7354C11.9266 11.2777 11.2681 11.9224 10.7036 12.6694C10.1447 13.4165 9.71029 14.241 9.40039 15.1431C9.09603 16.0451 8.94385 16.9997 8.94385 18.0068C8.94385 19.0085 9.09603 19.9603 9.40039 20.8623C9.70475 21.7643 10.1336 22.5944 10.687 23.3525C11.2404 24.1051 11.8934 24.7581 12.646 25.3115C13.4041 25.8649 14.2342 26.2938 15.1362 26.5981C16.0382 26.9025 16.9901 27.0547 17.9917 27.0547C18.9933 27.0547 19.9451 26.9025 20.8472 26.5981C21.7547 26.2938 22.5848 25.8649 23.3374 25.3115C24.09 24.7581 24.743 24.1051 25.2964 23.3525C25.8553 22.5944 26.2842 21.7643 26.583 20.8623C26.8874 19.9603 27.0396 19.0085 27.0396 18.0068C27.0396 17.0052 26.8874 16.0534 26.583 15.1514C26.2842 14.2438 25.8553 13.4137 25.2964 12.6611C24.743 11.9085 24.09 11.2555 23.3374 10.7021C22.5848 10.1432 21.7547 9.71436 20.8472 9.41553C19.9396 9.11117 18.985 8.95898 17.9834 8.95898C17.7233 8.95898 17.4992 8.86491 17.311 8.67676C17.1284 8.48861 17.0371 8.26449 17.0371 8.00439C17.0371 7.74984 17.1284 7.52848 17.311 7.34033C17.4937 7.15218 17.7178 7.05534 17.9834 7.0498C19.1898 7.05534 20.3408 7.24349 21.4365 7.61426C22.5378 7.97949 23.5449 8.49691 24.458 9.1665C25.3711 9.8361 26.1624 10.6274 26.832 11.5405C27.5016 12.4536 28.0218 13.458 28.3926 14.5537C28.7633 15.6439 28.9487 16.7949 28.9487 18.0068C28.9487 19.2132 28.7633 20.3643 28.3926 21.46C28.0218 22.5557 27.5016 23.5573 26.832 24.4648C26.1624 25.3779 25.3711 26.1693 24.458 26.8389C23.5449 27.514 22.5405 28.0342 21.4448 28.3994C20.3547 28.7702 19.2036 28.9556 17.9917 28.9556ZM15.1694 22.3315C14.9425 22.3315 14.7655 22.2596 14.6382 22.1157C14.5109 21.9718 14.4473 21.7865 14.4473 21.5596V15.4917H14.4224L13.3433 16.2969C13.2879 16.3411 13.2298 16.3743 13.1689 16.3965C13.1136 16.4186 13.05 16.4297 12.978 16.4297C12.8286 16.4297 12.7041 16.3799 12.6045 16.2803C12.5104 16.1807 12.4634 16.0534 12.4634 15.8984C12.4634 15.7712 12.491 15.6632 12.5464 15.5747C12.6073 15.4862 12.6875 15.4032 12.7871 15.3257L14.0239 14.4126C14.1899 14.2909 14.3504 14.1912 14.5054 14.1138C14.6659 14.0308 14.8512 13.9893 15.0615 13.9893C15.3161 13.9893 15.5181 14.0612 15.6675 14.2051C15.8224 14.349 15.8999 14.5482 15.8999 14.8027V21.5596C15.8999 21.7865 15.8335 21.9718 15.7007 22.1157C15.5734 22.2596 15.3963 22.3315 15.1694 22.3315ZM20.3491 22.3979C20.0171 22.3979 19.6851 22.3398 19.353 22.2236C19.0265 22.1019 18.736 21.9276 18.4814 21.7007C18.2324 21.4738 18.0581 21.2026 17.9585 20.8872C17.9198 20.8153 17.8866 20.7378 17.8589 20.6548C17.8368 20.5718 17.8257 20.4888 17.8257 20.4058C17.8257 20.2231 17.8783 20.0765 17.9834 19.9658C18.0941 19.8551 18.238 19.7998 18.415 19.7998C18.6917 19.7998 18.902 19.952 19.0459 20.2563C19.1455 20.533 19.306 20.7655 19.5273 20.9536C19.7487 21.1418 20.0226 21.2358 20.3491 21.2358C20.6313 21.2358 20.8693 21.1584 21.063 21.0034C21.2567 20.8485 21.4033 20.6437 21.5029 20.3892C21.6081 20.1346 21.6606 19.8551 21.6606 19.5508C21.6606 19.1247 21.55 18.7456 21.3286 18.4136C21.1128 18.0815 20.7918 17.9155 20.3657 17.9155C20.1388 17.9155 19.9313 17.9709 19.7432 18.0815C19.5605 18.1867 19.4056 18.3278 19.2783 18.5049C19.1732 18.6266 19.0736 18.7207 18.9795 18.7871C18.8854 18.848 18.7554 18.8784 18.5894 18.8784C18.368 18.8784 18.1992 18.8037 18.083 18.6543C17.9668 18.4993 17.917 18.3057 17.9336 18.0732L18.166 14.9355C18.1992 14.3877 18.4704 14.1138 18.9795 14.1138H22.1089C22.2804 14.1138 22.4188 14.1663 22.5239 14.2715C22.6291 14.3766 22.6816 14.5177 22.6816 14.6948C22.6816 14.8664 22.6291 15.0075 22.5239 15.1182C22.4188 15.2233 22.2804 15.2759 22.1089 15.2759H19.3613L19.1621 17.7578H19.1953C19.3503 17.4756 19.5716 17.257 19.8594 17.1021C20.1471 16.9416 20.4681 16.8613 20.8223 16.8613C21.2926 16.8613 21.6938 16.9831 22.0259 17.2266C22.3579 17.4701 22.6125 17.7938 22.7896 18.1978C22.9666 18.5962 23.0552 19.0334 23.0552 19.5093C23.0552 20.0682 22.9445 20.5662 22.7231 21.0034C22.5073 21.4351 22.1974 21.7754 21.7935 22.0244C21.3895 22.2734 20.908 22.3979 20.3491 22.3979Z" fill="#BFBFBF" style="mix-blend-mode:plus-lighter"/>
</g>
</svg>
