<svg width="15" height="17" viewBox="0 0 15 17" fill="none" xmlns="http://www.w3.org/2000/svg">
<path d="M5.14453 14.4551C5.00781 14.4551 4.89648 14.4141 4.81055 14.332C4.72852 14.25 4.68555 14.1426 4.68164 14.0098L4.44141 5.92383C4.4375 5.79102 4.47852 5.68359 4.56445 5.60156C4.65039 5.51562 4.76367 5.47266 4.9043 5.47266C5.03711 5.47266 5.14648 5.51367 5.23242 5.5957C5.31836 5.67773 5.36328 5.7832 5.36719 5.91211L5.60742 14.0039C5.61133 14.1367 5.57031 14.2441 5.48438 14.3262C5.39844 14.4121 5.28516 14.4551 5.14453 14.4551ZM7.38867 14.4551C7.24805 14.4551 7.13281 14.4121 7.04297 14.3262C6.95703 14.2441 6.91406 14.1387 6.91406 14.0098V5.91797C6.91406 5.78516 6.95703 5.67773 7.04297 5.5957C7.13281 5.51367 7.24805 5.47266 7.38867 5.47266C7.5293 5.47266 7.64258 5.51367 7.72852 5.5957C7.81445 5.67773 7.85742 5.78516 7.85742 5.91797V14.0098C7.85742 14.1387 7.81445 14.2441 7.72852 14.3262C7.64258 14.4121 7.5293 14.4551 7.38867 14.4551ZM9.62695 14.4551C9.48242 14.4551 9.36914 14.4141 9.28711 14.332C9.20508 14.25 9.16602 14.1406 9.16992 14.0039L9.4043 5.91797C9.4082 5.78516 9.45312 5.67969 9.53906 5.60156C9.625 5.51953 9.73633 5.47852 9.87305 5.47852C10.0098 5.47852 10.1191 5.51953 10.2012 5.60156C10.2871 5.68359 10.3281 5.79102 10.3242 5.92383L10.0898 14.0156C10.0859 14.1484 10.041 14.2539 9.95508 14.332C9.86914 14.4141 9.75977 14.4551 9.62695 14.4551ZM4.01953 3.39844V1.76367C4.01953 1.21289 4.18555 0.78125 4.51758 0.46875C4.85352 0.15625 5.32227 0 5.92383 0H8.83594C9.43359 0 9.90039 0.15625 10.2363 0.46875C10.5723 0.78125 10.7402 1.21289 10.7402 1.76367V3.39844H9.52148V1.82227C9.52148 1.60742 9.45312 1.4375 9.31641 1.3125C9.17969 1.18359 8.99414 1.11914 8.75977 1.11914H6C5.76562 1.11914 5.58008 1.18359 5.44336 1.3125C5.30664 1.4375 5.23828 1.60742 5.23828 1.82227V3.39844H4.01953ZM0.585938 4.10742C0.425781 4.10742 0.287109 4.05078 0.169922 3.9375C0.0566406 3.82422 0 3.68555 0 3.52148C0 3.36133 0.0566406 3.22461 0.169922 3.11133C0.287109 2.99414 0.425781 2.93555 0.585938 2.93555H14.1797C14.3438 2.93555 14.4824 2.99219 14.5957 3.10547C14.709 3.21875 14.7656 3.35742 14.7656 3.52148C14.7656 3.68555 14.709 3.82422 14.5957 3.9375C14.4863 4.05078 14.3477 4.10742 14.1797 4.10742H0.585938ZM3.9375 16.9395C3.56641 16.9395 3.24219 16.8672 2.96484 16.7227C2.69141 16.5781 2.47461 16.373 2.31445 16.1074C2.1582 15.8418 2.07227 15.5273 2.05664 15.1641L1.51172 3.97266H2.71875L3.25781 14.9707C3.26953 15.2051 3.34961 15.3965 3.49805 15.5449C3.65039 15.6934 3.83594 15.7676 4.05469 15.7676H10.7051C10.9316 15.7676 11.1191 15.6934 11.2676 15.5449C11.416 15.3965 11.4961 15.2051 11.5078 14.9707L12.0234 3.9668H13.2598L12.7207 15.1582C12.7012 15.5215 12.6113 15.8359 12.4512 16.1016C12.291 16.3711 12.0723 16.5781 11.7949 16.7227C11.5215 16.8672 11.2051 16.9395 10.8457 16.9395H3.9375Z" fill="#FF7A7C"/>
</svg>
